<svg width="17" height="25" viewBox="0 0 17 25" fill="none" xmlns="http://www.w3.org/2000/svg">
<path d="M8.5 1.5C7.70435 1.5 6.94129 1.81607 6.37868 2.37868C5.81607 2.94129 5.5 3.70435 5.5 4.5V12.5C5.5 13.2956 5.81607 14.0587 6.37868 14.6213C6.94129 15.1839 7.70435 15.5 8.5 15.5C9.29565 15.5 10.0587 15.1839 10.6213 14.6213C11.1839 14.0587 11.5 13.2956 11.5 12.5V4.5C11.5 3.70435 11.1839 2.94129 10.6213 2.37868C10.0587 1.81607 9.29565 1.5 8.5 1.5Z" fill="red"/>
<path fill-rule="evenodd" clip-rule="evenodd" d="M5.67157 1.67157C6.42172 0.921427 7.43913 0.5 8.5 0.5C9.56087 0.5 10.5783 0.921427 11.3284 1.67157C12.0786 2.42172 12.5 3.43913 12.5 4.5V12.5C12.5 13.5609 12.0786 14.5783 11.3284 15.3284C10.5783 16.0786 9.56087 16.5 8.5 16.5C7.43913 16.5 6.42172 16.0786 5.67157 15.3284C4.92143 14.5783 4.5 13.5609 4.5 12.5V4.5C4.5 3.43913 4.92143 2.42172 5.67157 1.67157ZM8.5 2.5C7.96957 2.5 7.46086 2.71071 7.08579 3.08579C6.71071 3.46086 6.5 3.96957 6.5 4.5V12.5C6.5 13.0304 6.71071 13.5391 7.08579 13.9142C7.46086 14.2893 7.96957 14.5 8.5 14.5C9.03043 14.5 9.53914 14.2893 9.91421 13.9142C10.2893 13.5391 10.5 13.0304 10.5 12.5V4.5C10.5 3.96957 10.2893 3.46086 9.91421 3.08579C9.53914 2.71071 9.03043 2.5 8.5 2.5Z" fill="red"/>
<path fill-rule="evenodd" clip-rule="evenodd" d="M1.5 9.5C2.05228 9.5 2.5 9.94771 2.5 10.5V12.5C2.5 14.0913 3.13214 15.6174 4.25736 16.7426C5.38258 17.8679 6.9087 18.5 8.5 18.5C10.0913 18.5 11.6174 17.8679 12.7426 16.7426C13.8679 15.6174 14.5 14.0913 14.5 12.5V10.5C14.5 9.94771 14.9477 9.5 15.5 9.5C16.0523 9.5 16.5 9.94771 16.5 10.5V12.5C16.5 14.6217 15.6571 16.6566 14.1569 18.1569C12.6566 19.6571 10.6217 20.5 8.5 20.5C6.37827 20.5 4.34344 19.6571 2.84315 18.1569C1.34285 16.6566 0.5 14.6217 0.5 12.5V10.5C0.5 9.94771 0.947715 9.5 1.5 9.5Z" fill="red"/>
<path fill-rule="evenodd" clip-rule="evenodd" d="M8.5 18.5C9.05229 18.5 9.5 18.9477 9.5 19.5V23.5C9.5 24.0523 9.05229 24.5 8.5 24.5C7.94772 24.5 7.5 24.0523 7.5 23.5V19.5C7.5 18.9477 7.94772 18.5 8.5 18.5Z" fill="red"/>
<path fill-rule="evenodd" clip-rule="evenodd" d="M3.5 23.5C3.5 22.9477 3.94772 22.5 4.5 22.5H12.5C13.0523 22.5 13.5 22.9477 13.5 23.5C13.5 24.0523 13.0523 24.5 12.5 24.5H4.5C3.94772 24.5 3.5 24.0523 3.5 23.5Z" fill="red"/>
</svg>
